<?xml version="1.0" encoding="UTF-8"?>
<svg xmlns="http://www.w3.org/2000/svg" xmlns:xlink="http://www.w3.org/1999/xlink" width="616pt" height="504pt" viewBox="0 0 616 504" version="1.1">
<g id="surface1">
<path style=" stroke:none;fill-rule:evenodd;fill:rgb(11.372549%,11.372549%,11.372549%);fill-opacity:1;" d="M 533.679688 227.921875 C 549.359375 240.800781 572.320312 239.679688 586.601562 225.398438 C 603.121094 208.878906 602 181.441406 583.800781 166.601562 C 483.28125 84.28125 354.199219 53.761719 232.398438 75.320312 L 304.921875 147.839844 C 385.839844 147 467.320312 173.601562 533.679688 227.921875 Z M 470.121094 279.160156 C 448.28125 263.199219 424.480469 251.160156 399.558594 242.761719 L 482.160156 325.359375 C 488.878906 309.121094 484.960938 289.800781 470.121094 279.160156 Z M 362.601562 398.441406 C 328.441406 380.800781 287.558594 380.800781 253.121094 398.441406 C 236.601562 407.121094 233.519531 429.800781 246.679688 442.960938 L 287.839844 484.121094 C 298.761719 495.039062 316.398438 495.039062 327.320312 484.121094 L 368.480469 442.960938 C 382.199219 429.800781 379.398438 407.121094 362.601562 398.441406 Z M 523.039062 445.199219 L 87.359375 9.519531 C 76.441406 -1.398438 58.800781 -1.398438 47.878906 9.519531 C 36.960938 20.441406 36.960938 38.078125 47.878906 49 L 113.398438 114.800781 C 85.121094 128.800781 57.679688 145.878906 32.480469 166.601562 C 14.28125 181.441406 13.160156 208.878906 29.679688 225.398438 C 43.960938 239.679688 66.640625 241.078125 82.039062 228.199219 C 110.039062 205.238281 140.839844 187.320312 173.039062 174.160156 L 235.480469 236.601562 C 203.839844 245 173.601562 259 146.160156 278.878906 C 126.839844 292.878906 125.71875 321.160156 142.519531 337.960938 L 142.800781 338.238281 C 156.519531 351.960938 178.078125 353.359375 194.039062 341.878906 C 227.359375 318.359375 266.28125 306.601562 305.199219 305.761719 L 483.558594 484.121094 C 494.480469 495.039062 512.121094 495.039062 523.039062 484.121094 C 533.960938 473.761719 533.960938 456.121094 523.039062 445.199219 Z M 523.039062 445.199219 "/>
</g>
</svg>
